<svg width="31" height="25" viewBox="0 0 31 25" fill="none" xmlns="http://www.w3.org/2000/svg">
<path d="M0 1.78571C0 1.31211 0.204129 0.85791 0.567481 0.523024C0.930832 0.188137 1.42364 0 1.9375 0H29.0625C29.5764 0 30.0692 0.188137 30.4325 0.523024C30.7959 0.85791 31 1.31211 31 1.78571V5.35714C31 5.83074 30.7959 6.28495 30.4325 6.61983C30.0692 6.95472 29.5764 7.14286 29.0625 7.14286V20.5357C29.0625 21.7197 28.5522 22.8552 27.6438 23.6924C26.7354 24.5297 25.5034 25 24.2187 25H6.78125C5.49661 25 4.26458 24.5297 3.3562 23.6924C2.44782 22.8552 1.9375 21.7197 1.9375 20.5357V7.14286C1.42364 7.14286 0.930832 6.95472 0.567481 6.61983C0.204129 6.28495 0 5.83074 0 5.35714V1.78571ZM3.875 7.14286V20.5357C3.875 21.2461 4.18119 21.9274 4.72622 22.4297C5.27125 22.9321 6.01046 23.2143 6.78125 23.2143H24.2187C24.9895 23.2143 25.7288 22.9321 26.2738 22.4297C26.8188 21.9274 27.125 21.2461 27.125 20.5357V7.14286H3.875ZM29.0625 1.78571H1.9375V5.35714H29.0625V1.78571ZM9.6875 11.6071C9.6875 11.3703 9.78956 11.1432 9.97124 10.9758C10.1529 10.8084 10.3993 10.7143 10.6562 10.7143H20.3438C20.6007 10.7143 20.8471 10.8084 21.0288 10.9758C21.2104 11.1432 21.3125 11.3703 21.3125 11.6071C21.3125 11.8439 21.2104 12.071 21.0288 12.2385C20.8471 12.4059 20.6007 12.5 20.3438 12.5H10.6562C10.3993 12.5 10.1529 12.4059 9.97124 12.2385C9.78956 12.071 9.6875 11.8439 9.6875 11.6071Z" fill="black"/>
</svg>
